# xmcd
#
# Track frame offsets:
#	150
#	45287
#	73830
#	94292
#	116215
#	130142
#	150255
#	170600
#	197547
#	216820
#	244107
#	261045
#	285027
#	306607
#
# Disc length: 4435 seconds
#
# Revision: 0
# Processed by: cddbd v1.4PL0 Copyright (c) Steve Scherf et al.
# Submitted via: dBpowerAMP V4.0
#
DISCID=c311510e
DTITLE=Marvin Sease - The Best Of Marvin Sease
DYEAR=1900
DGENRE=
TTITLE0=Candy Licker
TTITLE1=Ghetto Man
TTITLE2=Do It Tonight
TTITLE3=Show Me What You GO
TTITLE4=I Ate You For My breakfast
TTITLE5=Same Old Woman
TTITLE6=Motel Lover
TTITLE7=I Stand Accused
TTITLE8=Dreaming
TTITLE9=Stuck In The Middle
TTITLE10=Tell Me Why
TTITLE11=Lately
TTITLE12=Double Crosser
TTITLE13=Let's Get Married Today
EXTD=galen Massey is my name the album is one of marvin sease's new releases \nit's a good one too
EXTT0=
EXTT1=
EXTT2=
EXTT3=
EXTT4=
EXTT5=
EXTT6=
EXTT7=
EXTT8=
EXTT9=
EXTT10=
EXTT11=
EXTT12=
EXTT13=
PLAYORDER=
